<svg version="1.1" xmlns="http://www.w3.org/2000/svg" width="60" height="60">
<path d="M0 0 C3.05055319 -0.28778804 5.95788713 -0.42146502 9 0 C12.57044021 3.68201647 12.23959973 6.67719811 13 12 C26.53 12 40.06 12 54 12 C53.34910233 18.50897669 52.83590748 23.45033825 51.0625 29.5 C50.72347656 30.6859375 50.38445313 31.871875 50.03515625 33.09375 C49 36 49 36 47 38 C42.74393391 38.44455788 38.47307238 38.41415676 34.1965332 38.42553711 C32.0732097 38.43743996 29.95278819 38.48660972 27.83007812 38.53710938 C26.48178503 38.54657315 25.13347407 38.55380841 23.78515625 38.55859375 C21.94256226 38.57877563 21.94256226 38.57877563 20.06274414 38.59936523 C17 38 17 38 15.19042969 35.86035156 C13.92539302 32.82073516 12.9891634 29.86482045 12.16796875 26.67578125 C11.84376953 25.48275391 11.51957031 24.28972656 11.18554688 23.06054688 C10.51803412 20.55378174 9.86445789 18.04326557 9.22460938 15.52929688 C8.89654297 14.34013672 8.56847656 13.15097656 8.23046875 11.92578125 C7.94582764 10.83692627 7.66118652 9.74807129 7.36791992 8.6262207 C6.18857018 5.69109396 6.18857018 5.69109396 2.8605957 4.62963867 C1.91659912 4.42185791 0.97260254 4.21407715 0 4 C0 2.68 0 1.36 0 0 Z " fill="#000000" transform="translate(2,4)"/>
<path d="M0 0 C3 0.125 3 0.125 4 1.125 C4.125 4.125 4.125 4.125 4 7.125 C3 8.125 3 8.125 0 8.25 C-3 8.125 -3 8.125 -4 7.125 C-4.125 4.125 -4.125 4.125 -4 1.125 C-3 0.125 -3 0.125 0 0 Z " fill="#000000" transform="translate(44,45.875)"/>
<path d="M0 0 C3 0.125 3 0.125 4 1.125 C4.125 4.125 4.125 4.125 4 7.125 C3 8.125 3 8.125 0 8.25 C-3 8.125 -3 8.125 -4 7.125 C-4.125 4.125 -4.125 4.125 -4 1.125 C-3 0.125 -3 0.125 0 0 Z " fill="#000000" transform="translate(24,45.875)"/>
</svg>
