<svg version="1.1" xmlns="http://www.w3.org/2000/svg" width="433" height="577">
<path d="M0 0 C0.73089844 0.26683594 1.46179688 0.53367188 2.21484375 0.80859375 C9.17643816 3.64106887 15.89083733 7.63766127 22 12 C22 12.66 22 13.32 22 14 C22.58394531 14.26296875 23.16789063 14.5259375 23.76953125 14.796875 C35.80581638 21.289302 44.58446099 38.5963495 49 51 C51.66472169 60.14703896 52.51776436 68.80970592 52.4375 78.3125 C52.42920166 79.58706055 52.42090332 80.86162109 52.41235352 82.17480469 C52.24074848 91.75293073 51.30224523 99.98944886 48 109 C47.75330566 109.67885254 47.50661133 110.35770508 47.25244141 111.05712891 C41.30496257 127.13248146 33.11607473 141.30969372 23.23046875 155.25390625 C21.57494179 157.60317784 19.96915775 159.98376337 18.375 162.375 C17.92898438 163.04273438 17.48296875 163.71046875 17.0234375 164.3984375 C15.94098918 166.03070459 15.94098918 166.03070459 15 168 C14.34 168 13.68 168 13 168 C12.7525 168.721875 12.505 169.44375 12.25 170.1875 C10.88745796 173.25321959 9.14629658 175.43829118 7 178 C6.67 178.66 6.34 179.32 6 180 C5.34 180 4.68 180 4 180 C3.74992188 180.66773438 3.49984375 181.33546875 3.2421875 182.0234375 C2.01743905 184.95821209 0.6365346 187.74494127 -0.81835938 190.56958008 C-8.92745035 205.94656942 -8.92745035 205.94656942 -10 223 C-8.65253476 226.45346148 -8.65253476 226.45346148 -7 229 C-7 229.66 -7 230.32 -7 231 C-6.443125 231.268125 -5.88625 231.53625 -5.3125 231.8125 C-3 233 -3 233 -0.8125 234.55078125 C4.95581172 237.5230641 13.42246963 236.91677509 19.65234375 235.3203125 C21.46200507 234.61262372 23.23573013 233.8142784 25 233 C25.99 233 26.98 233 28 233 C28 233.99 28 234.98 28 236 C25 238 25 238 22 238 C22 238.66 22 239.32 22 240 C12.20718467 245.12533062 2.58941817 249.72645621 -8 253 C-9.49660156 253.47953125 -9.49660156 253.47953125 -11.0234375 253.96875 C-22.81318062 257.24199488 -38.97285354 258.78926028 -50.19921875 253.06640625 C-50.79347656 252.71449219 -51.38773437 252.36257813 -52 252 C-52.928125 251.54625 -53.85625 251.0925 -54.8125 250.625 C-57.80160476 248.40452218 -59.77248562 245.99123359 -62 243 C-62 242.34 -62 241.68 -62 241 C-62.66 241 -63.32 241 -64 241 C-64 241.66 -64 242.32 -64 243 C-70.44654658 248.06514374 -77.05170389 248.68164999 -85 248 C-97.47485578 245.79974226 -107.69927478 238.14701186 -115 228 C-134.52521114 195.14466659 -120.78834971 152.15955017 -112.84814453 117.68286133 C-108.67433554 99.55911102 -105.82536206 81.16795514 -114.1953125 63.84765625 C-115 62 -115 62 -115 60 C-115.556875 59.731875 -116.11375 59.46375 -116.6875 59.1875 C-119 58 -119 58 -121.5 56.4375 C-127.41416206 53.03685682 -134.923678 52.91559383 -141.4375 54.6484375 C-147.3017886 57.03080475 -154.09123793 61.18247587 -157 67 C-157.66 67 -158.32 67 -159 67 C-159.66 68.65 -160.32 70.3 -161 72 C-161.99 72 -162.98 72 -164 72 C-162.08011563 59.60801906 -149.45603229 44.06505401 -141 35 C-140.34 35 -139.68 35 -139 35 C-138.67 34.01 -138.34 33.02 -138 32 C-126.75058894 23.28328937 -113.56119828 16.59830498 -99.25 16.625 C-98.35909668 16.62661133 -97.46819336 16.62822266 -96.55029297 16.62988281 C-90.01341776 16.7519332 -84.69119514 17.59701734 -79 21 C-77.948125 21.61875 -76.89625 22.2375 -75.8125 22.875 C-74.884375 23.57625 -73.95625 24.2775 -73 25 C-72.44828125 25.39574219 -71.8965625 25.79148438 -71.328125 26.19921875 C-61.88796771 33.48818975 -55.87454172 45.52695567 -54.25 57.25 C-54.13422681 58.83129234 -54.05555591 60.41544882 -54 62 C-53.94005859 63.7015625 -53.94005859 63.7015625 -53.87890625 65.4375 C-53.7326244 73.83579889 -54.31514214 81.77277011 -56 90 C-56.31517578 91.59908203 -56.31517578 91.59908203 -56.63671875 93.23046875 C-58.66027326 101.96630162 -61.99018836 109.86036092 -65.5625 118.0625 C-75.51855297 141.09360487 -77.66732553 165.38114474 -68.25 189.21875 C-65.69254642 194.90908421 -62.87637778 200.46539669 -60 206 C-59.62230469 205.05382812 -59.24460937 204.10765625 -58.85546875 203.1328125 C-54.56763165 192.72082546 -49.20074894 183.32408967 -43.16210938 173.83447266 C-41.33193539 170.9454123 -39.52992703 168.05985406 -38 165 C-37.34 165 -36.68 165 -36 165 C-35.75894531 164.29746094 -35.51789063 163.59492188 -35.26953125 162.87109375 C-33.79650163 159.53978062 -31.87293575 156.97519 -29.6875 154.0625 C-19.68016117 140.09672051 -17.34482092 123.84444286 -18 107 C-18.02964844 106.08605469 -18.05929688 105.17210937 -18.08984375 104.23046875 C-19.0848408 87.65527397 -25.99213043 73.0329695 -35.94140625 60 C-40.00769489 54.07417519 -42.99135768 47.51166249 -46 41 C-46.39574219 40.21882813 -46.79148437 39.43765625 -47.19921875 38.6328125 C-49.60980996 30.70725895 -49.86838581 18.20428669 -46.0625 10.75 C-34.92880032 -4.79933128 -17.0581638 -6.32493714 0 0 Z " fill="#232323" transform="translate(263,158)"/>
<path d="M0 0 C0.89090332 0.00161133 1.78180664 0.00322266 2.69970703 0.00488281 C9.23658224 0.1269332 14.55880486 0.97201734 20.25 4.375 C21.301875 4.99375 22.35375 5.6125 23.4375 6.25 C24.365625 6.95125 25.29375 7.6525 26.25 8.375 C26.80171875 8.77074219 27.3534375 9.16648438 27.921875 9.57421875 C37.36203229 16.86318975 43.37545828 28.90195567 45 40.625 C45.11577319 42.20629234 45.19444409 43.79044882 45.25 45.375 C45.30994141 47.0765625 45.30994141 47.0765625 45.37109375 48.8125 C45.5173756 57.21079889 44.93485786 65.14777011 43.25 73.375 C42.93482422 74.97408203 42.93482422 74.97408203 42.61328125 76.60546875 C39.79831503 88.75788391 34.50908233 99.98331657 29.53735352 111.37475586 C27.99078997 114.97910242 26.54046389 118.61654856 25.09912109 122.26391602 C24.08700711 124.78023276 22.97207298 127.23594606 21.8125 129.6875 C17.81135433 138.43303821 14.11011305 146.74173387 13.25 156.375 C12.4509705 158.77208851 11.47199111 160.95111573 10.30078125 163.1875 C5.32276583 173.25456465 5.07390023 184.0999646 4.9375 195.125 C4.91977539 195.98770508 4.90205078 196.85041016 4.88378906 197.73925781 C4.89270312 205.52123431 6.15137162 213.60082972 11.1875 219.8125 C11.67089844 220.42996094 12.15429688 221.04742187 12.65234375 221.68359375 C16.43081262 225.68378206 19.91883016 227.04220754 25.25 228.375 C25.25 228.705 25.25 229.035 25.25 229.375 C4.61129041 230.51924057 4.61129041 230.51924057 -3.75 223.375 C-4.46285156 222.83359375 -5.17570312 222.2921875 -5.91015625 221.734375 C-17.07228925 212.8046686 -22.60609437 199.62906465 -24.50244141 185.72460938 C-27.52545496 157.03281211 -19.98498435 128.78977558 -13.59814453 101.05786133 C-9.42433554 82.93411102 -6.57536206 64.54295514 -14.9453125 47.22265625 C-15.75 45.375 -15.75 45.375 -15.75 43.375 C-16.306875 43.106875 -16.86375 42.83875 -17.4375 42.5625 C-19.75 41.375 -19.75 41.375 -22.25 39.8125 C-28.16416206 36.41185682 -35.673678 36.29059383 -42.1875 38.0234375 C-48.0517886 40.40580475 -54.84123793 44.55747587 -57.75 50.375 C-58.41 50.375 -59.07 50.375 -59.75 50.375 C-60.74 52.85 -60.74 52.85 -61.75 55.375 C-62.74 55.375 -63.73 55.375 -64.75 55.375 C-62.83011563 42.98301906 -50.20603229 27.44005401 -41.75 18.375 C-41.09 18.375 -40.43 18.375 -39.75 18.375 C-39.42 17.385 -39.09 16.395 -38.75 15.375 C-27.50058894 6.65828937 -14.31119828 -0.02669502 0 0 Z " fill="#252525" transform="translate(163.75,174.625)"/>
<path d="M0 0 C5.95855772 2.47062149 8.8307291 7.33627635 11.3203125 13.0078125 C20.60734101 37.42101918 20.88175518 64.90449508 14 90 C13.72712158 91.0533252 13.72712158 91.0533252 13.44873047 92.12792969 C10.64905044 102.80124069 6.16625626 112.2833326 1 122 C0.3282524 123.33078074 -0.34145087 124.66263869 -1 126 C-1.66 126 -2.32 126 -3 126 C-3.12004395 126.59401611 -3.24008789 127.18803223 -3.36376953 127.80004883 C-4.37076412 131.28202437 -6.67464147 133.87316041 -8.875 136.6875 C-9.32230469 137.28111328 -9.76960938 137.87472656 -10.23046875 138.48632812 C-13.62271985 142.87423995 -13.62271985 142.87423995 -17 144 C-17.66779829 145.33276692 -18.33429829 146.66618462 -19 148 C-20.953125 149.81640625 -20.953125 149.81640625 -23.25 151.5625 C-24.37148438 152.43068359 -24.37148438 152.43068359 -25.515625 153.31640625 C-32.962939 158.36324954 -39.13887076 158.92500519 -48 158 C-51.97110562 156.78035513 -53.64564631 154.55515412 -55.875 151.0625 C-59.5571167 140.84900962 -56.70770939 129.81656091 -52.3125 120.375 C-51.879375 119.59125 -51.44625 118.8075 -51 118 C-50.34 118 -49.68 118 -49 118 C-48.7525 117.28457031 -48.505 116.56914062 -48.25 115.83203125 C-46.86136405 112.68590294 -45.15536054 110.36189037 -43 107.6875 C-41.948125 106.36298828 -41.948125 106.36298828 -40.875 105.01171875 C-40.25625 104.34785156 -39.6375 103.68398438 -39 103 C-38.34 103 -37.68 103 -37 103 C-36.7628125 102.45859375 -36.525625 101.9171875 -36.28125 101.359375 C-34.65652243 98.36749863 -32.6498123 95.88840601 -30.5 93.25 C-29.7059375 92.26515625 -28.911875 91.2803125 -28.09375 90.265625 C-27.4028125 89.51796875 -26.711875 88.7703125 -26 88 C-25.34 88 -24.68 88 -24 88 C-23.53753292 86.66809481 -23.08030845 85.3343693 -22.625 84 C-22.36976563 83.2575 -22.11453125 82.515 -21.8515625 81.75 C-19.55378828 74.3296649 -18.50176787 67.35796543 -17.9375 59.625 C-17.85443604 58.54734375 -17.77137207 57.4696875 -17.68579102 56.359375 C-17.01134472 47.17045876 -16.61494285 37.97706983 -16.34155273 28.76806641 C-15.72623071 8.91094782 -15.72623071 8.91094782 -8.0625 1 C-5.16526675 -0.40471915 -3.18490516 -0.38998839 0 0 Z " fill="#262626" transform="translate(333,226)"/>
<path d="M0 0 C1.09731445 0.01353516 1.09731445 0.01353516 2.21679688 0.02734375 C3.99884298 0.05063847 5.78071759 0.0864981 7.5625 0.125 C7.5625 0.455 7.5625 0.785 7.5625 1.125 C2.9425 1.455 -1.6775 1.785 -6.4375 2.125 C-4.49875 2.62 -2.56 3.115 -0.5625 3.625 C11.64497833 7.46466238 18.67499802 15.35076929 24.65527344 26.28173828 C26.98179061 31.0086502 28.34118722 36.02165732 29.5625 41.125 C29.7382959 41.71079834 29.9140918 42.29659668 30.09521484 42.90014648 C30.70176884 45.7880914 30.69234141 48.51391607 30.6953125 51.46484375 C30.69660156 52.69267578 30.69789063 53.92050781 30.69921875 55.18554688 C30.69535156 56.46494141 30.69148438 57.74433594 30.6875 59.0625 C30.69330078 60.97579102 30.69330078 60.97579102 30.69921875 62.92773438 C30.69792969 64.15685547 30.69664062 65.38597656 30.6953125 66.65234375 C30.69418457 67.77374756 30.69305664 68.89515137 30.69189453 70.05053711 C30.57364969 72.86007905 30.20358415 75.392912 29.5625 78.125 C28.9025 78.125 28.2425 78.125 27.5625 78.125 C27.789375 78.805625 28.01625 79.48625 28.25 80.1875 C28.78647726 85.23038623 26.2947378 89.02664329 23.5625 93.125 C24.5525 93.62 24.5525 93.62 25.5625 94.125 C24.66450383 96.61244939 23.74566241 99.0882737 22.8125 101.5625 C22.55984375 102.26955078 22.3071875 102.97660156 22.046875 103.70507812 C21.265625 105.74609375 21.265625 105.74609375 19.5625 109.125 C17.359375 110.09765625 17.359375 110.09765625 15.5625 110.125 C15.459375 111.0325 15.35625 111.94 15.25 112.875 C14.54588391 116.20354877 13.56003277 117.49188862 11.5625 120.125 C11.8925 121.115 12.2225 122.105 12.5625 123.125 C12.2325 123.785 11.9025 124.445 11.5625 125.125 C10.923125 125.24875 10.28375 125.3725 9.625 125.5 C7.36398727 125.93439427 7.36398727 125.93439427 6.3125 128.1875 C6.065 128.826875 5.8175 129.46625 5.5625 130.125 C4.5725 130.125 3.5825 130.125 2.5625 130.125 C2.5625 129.465 2.5625 128.805 2.5625 128.125 C3.2225 128.125 3.8825 128.125 4.5625 128.125 C4.5625 127.465 4.5625 126.805 4.5625 126.125 C3.9025 126.125 3.2425 126.125 2.5625 126.125 C1.9025 129.425 1.2425 132.725 0.5625 136.125 C-0.40867324 132.24030704 -0.19257936 129.71062769 0.30078125 125.80859375 C2.56559738 102.58577765 -3.20907018 81.6866566 -17.37890625 63.125 C-21.44519489 57.19917519 -24.42885768 50.63666249 -27.4375 44.125 C-27.83324219 43.34382813 -28.22898438 42.56265625 -28.63671875 41.7578125 C-31.04730996 33.83225895 -31.30588581 21.32928669 -27.5 13.875 C-20.27241032 3.78094416 -12.2588816 -0.29161109 0 0 Z " fill="#A7A7A7" transform="translate(244.4375,154.875)"/>
<path d="M0 0 C5.05041257 2.47569243 8.31641007 6.12463343 11 11 C15.04776746 24.78258516 11.64576566 41.68660859 10.06738281 55.72192383 C8.7349276 67.94110779 8.25682496 80.01884005 10.25 92.1875 C10.38567383 93.03626709 10.52134766 93.88503418 10.66113281 94.75952148 C13.00610222 108.64009943 18.10023573 119.08998195 27 130 C26.67 130.66 26.34 131.32 26 132 C24 132 24 132 21.75 129.9375 C19.19785029 127.28776809 16.83282967 124.48964747 14.46484375 121.67578125 C12.90057306 119.83370165 12.90057306 119.83370165 10.5625 117.6875 C7.58497758 114.56473258 5.24671069 111.22685975 2.82421875 107.6640625 C1.65004423 105.94931513 0.44618119 104.25433546 -0.79296875 102.5859375 C-12.99553486 86.04647704 -19.39784169 64.34741051 -21 44 C-21.13148437 42.76121094 -21.26296875 41.52242188 -21.3984375 40.24609375 C-22.5613692 27.64766703 -22.15751277 15.00795308 -14.34375 4.58203125 C-10.43250508 -0.02277745 -5.84970576 -1.01333486 0 0 Z " fill="#282828" transform="translate(110,251)"/>
<path d="M0 0 C0.76046768 2.28140304 1.06008087 3.72424423 0.54296875 6.09765625 C-3.67759043 28.65791146 3.78655786 50.29690296 14 70 C15.53725408 73.07450817 14.12902647 75.04682958 13.0625 78.25 C10.40998853 87.13134012 9.91521502 95.89813387 12 105 C11.34 105 10.68 105 10 105 C10 105.66 10 106.32 10 107 C3.41271212 112.17572619 -2.94258271 112.38509715 -11 112 C-14.0625 111.5 -14.0625 111.5 -16 111 C-16 110.67 -16 110.34 -16 110 C-10.06 109.505 -10.06 109.505 -4 109 C-5.2684375 108.505 -5.2684375 108.505 -6.5625 108 C-13.99632377 103.67486617 -18.35782371 97.13232265 -20.55859375 88.9140625 C-22.86716181 73.67342736 -22.02638865 55.80575582 -15 42 C-13.56490951 38.74781652 -12.78075397 35.95596653 -12.375 32.4375 C-10.49201439 21.23143928 -5.22704499 10.04444695 0 0 Z " fill="#ABABAB" transform="translate(189,294)"/>
<path d="M0 0 C4.52472658 1.87610614 8.06419575 5.48312341 10 10 C9.71723247 11.6759867 9.37315448 13.34179476 9 15 C9.00404171 16.95820739 9.01145877 18.91680666 9.06567383 20.87426758 C9.7111705 44.68326606 -2.25324805 66.08539303 -17.9375 83.4375 C-18.50339844 84.03433594 -19.06929688 84.63117188 -19.65234375 85.24609375 C-21.13618132 86.93019562 -21.13618132 86.93019562 -21.5078125 89.125 C-21.67023438 89.74375 -21.83265625 90.3625 -22 91 C-23.97416268 92.05008653 -25.97582866 93.04987876 -28 94 C-28.66 94.99 -29.32 95.98 -30 97 C-29.34 97.33 -28.68 97.66 -28 98 C-30.38573379 99.89213369 -32.07175348 101.02391783 -35 102 C-36.66710346 103.49985609 -36.66710346 103.49985609 -38 105 C-38.33 104.34 -38.66 103.68 -39 103 C-38.34 103 -37.68 103 -37 103 C-36.7628125 102.45859375 -36.525625 101.9171875 -36.28125 101.359375 C-34.65652243 98.36749863 -32.6498123 95.88840601 -30.5 93.25 C-29.7059375 92.26515625 -28.911875 91.2803125 -28.09375 90.265625 C-27.4028125 89.51796875 -26.711875 88.7703125 -26 88 C-25.34 88 -24.68 88 -24 88 C-23.53753292 86.66809481 -23.08030845 85.3343693 -22.625 84 C-22.36976563 83.2575 -22.11453125 82.515 -21.8515625 81.75 C-19.55378828 74.3296649 -18.50176787 67.35796543 -17.9375 59.625 C-17.85443604 58.54734375 -17.77137207 57.4696875 -17.68579102 56.359375 C-17.01134472 47.17045876 -16.61494285 37.97706983 -16.34155273 28.76806641 C-15.72623071 8.91094782 -15.72623071 8.91094782 -8.0625 1 C-5.16526675 -0.40471915 -3.18490516 -0.38998839 0 0 Z " fill="#BABABA" transform="translate(333,226)"/>
<path d="M0 0 C1.09731445 0.01353516 1.09731445 0.01353516 2.21679688 0.02734375 C3.99884298 0.05063847 5.78071759 0.0864981 7.5625 0.125 C7.5625 0.455 7.5625 0.785 7.5625 1.125 C2.9425 1.455 -1.6775 1.785 -6.4375 2.125 C-4.436875 2.681875 -2.43625 3.23875 -0.375 3.8125 C5.18421881 5.53003158 9.2929596 7.15333451 13.5625 11.125 C13.5625 12.445 13.5625 13.765 13.5625 15.125 C11.5625 14.125 11.5625 14.125 10.25 12.5 C9.693125 12.04625 9.13625 11.5925 8.5625 11.125 C5.90783951 11.35543864 5.90783951 11.35543864 3.5625 12.125 C3.5625 10.475 3.5625 8.825 3.5625 7.125 C0.56058261 6.73765582 -2.42498233 6.40575239 -5.4375 6.125 C-6.71367187 5.98771484 -6.71367187 5.98771484 -8.015625 5.84765625 C-12.71802041 5.55195347 -15.61547579 5.73164649 -19.3125 8.8125 C-20.38206317 9.8896667 -21.42602505 10.99311136 -22.4375 12.125 C-23.2625 12.99125 -24.0875 13.8575 -24.9375 14.75 C-26.6677248 16.92748942 -26.6677248 16.92748942 -26.1875 19 C-25.94 19.70125 -25.6925 20.4025 -25.4375 21.125 C-25.39861651 23.45800933 -25.3926365 25.79209801 -25.4375 28.125 C-26.0975 28.125 -26.7575 28.125 -27.4375 28.125 C-27.65505666 33.5639165 -27.54178384 37.99580814 -25.4375 43.125 C-26.4275 43.62 -26.4275 43.62 -27.4375 44.125 C-31.41577939 36.39211958 -30.82091673 24.33631741 -28.6328125 16.09375 C-25.27434096 9.51577816 -19.08575632 3.48381164 -12.17578125 0.91015625 C-8.00795498 0.03478208 -4.23632802 -0.10077267 0 0 Z " fill="#DBDBDB" transform="translate(244.4375,154.875)"/>
<path d="M0 0 C0.66 0 1.32 0 2 0 C-1.0454853 8.57992052 -7.4584771 15.71361025 -13.65234375 22.24609375 C-15.13618132 23.93019562 -15.13618132 23.93019562 -15.5078125 26.125 C-15.75144531 27.053125 -15.75144531 27.053125 -16 28 C-17.97416268 29.05008653 -19.97582866 30.04987876 -22 31 C-22.99 32.485 -22.99 32.485 -24 34 C-23.34 34.33 -22.68 34.66 -22 35 C-24.38573379 36.89213369 -26.07175348 38.02391783 -29 39 C-30.66710346 40.49985609 -30.66710346 40.49985609 -32 42 C-32.33 41.34 -32.66 40.68 -33 40 C-32.34 40 -31.68 40 -31 40 C-30.7628125 39.45859375 -30.525625 38.9171875 -30.28125 38.359375 C-28.65652243 35.36749863 -26.6498123 32.88840601 -24.5 30.25 C-23.7059375 29.26515625 -22.911875 28.2803125 -22.09375 27.265625 C-21.4028125 26.51796875 -20.711875 25.7703125 -20 25 C-19.34 25 -18.68 25 -18 25 C-15.85671642 18.70695459 -13.87724961 12.37732315 -12 6 C-9 6 -6 6 -3 6 C-2.87625 5.38125 -2.7525 4.7625 -2.625 4.125 C-2 2 -2 2 0 0 Z " fill="#7E7E7E" transform="translate(327,289)"/>
<path d="M0 0 C0.80058838 0.00088623 1.60117676 0.00177246 2.42602539 0.00268555 C9.83385861 0.14840129 18.70913067 0.90618552 24.47265625 6.01171875 C25.04306641 6.68654297 25.04306641 6.68654297 25.625 7.375 C22.61468256 8.30923645 21.75849732 8.41949911 18.625 7.375 C18.295 8.035 17.965 8.695 17.625 9.375 C14.71466456 10.05407827 12.55430615 10.52062516 9.625 10.375 C7.1875 8.625 7.1875 8.625 4.625 6.375 C-0.54051243 4.11080005 -5.79094257 2.96904866 -11.375 2.375 C-7.56686057 -0.16375962 -4.4202208 -0.0086537 0 0 Z " fill="#404040" transform="translate(246.375,155.625)"/>
<path d="M0 0 C2.875 1.5 2.875 1.5 5 3 C4.67 3.66 4.34 4.32 4 5 C3.01 5.33 2.02 5.66 1 6 C0.67 5.34 0.34 4.68 0 4 C-0.99 4.495 -0.99 4.495 -2 5 C-2 4.01 -2 3.02 -2 2 C-2.66 2 -3.32 2 -4 2 C-4.33 2.99 -4.66 3.98 -5 5 C-5.95253662 5.22937256 -5.95253662 5.22937256 -6.92431641 5.46337891 C-9.10336335 5.80311901 -9.10336335 5.80311901 -10.24365234 7.57958984 C-12.55802008 12.38006285 -13.5076362 16.21559577 -13.625 21.625 C-13.67687816 23.18629379 -13.73181416 24.74748764 -13.7890625 26.30859375 C-13.81774414 27.18757324 -13.84642578 28.06655273 -13.87597656 28.97216797 C-14.10417425 34.54324618 -14.4900884 40.10512324 -14.8649292 45.66790771 C-14.99781469 47.65482503 -15.12517442 49.64210943 -15.25244141 51.62939453 C-15.33413574 52.86931152 -15.41583008 54.10922852 -15.5 55.38671875 C-15.5721875 56.49233154 -15.644375 57.59794434 -15.71875 58.73706055 C-16.0157959 62.18325714 -16.48075408 65.58081969 -17 69 C-17.33 69 -17.66 69 -18 69 C-18.02804921 67.41677806 -18.04684498 65.833393 -18.0625 64.25 C-18.07410156 63.36828125 -18.08570313 62.4865625 -18.09765625 61.578125 C-18.01371607 58.50255671 -17.79950707 55.49631474 -17.52734375 52.43359375 C-16.85885388 44.78000651 -16.63512585 37.12401551 -16.39453125 29.44726562 C-15.68882704 8.87233759 -15.68882704 8.87233759 -8.0625 1 C-5.16526675 -0.40471915 -3.18490516 -0.38998839 0 0 Z " fill="#F5F5F5" transform="translate(333,226)"/>
<path d="M0 0 C1.65320356 3.14931538 2.916129 6.36805011 4.1875 9.6875 C6.30050032 14.83793828 8.84362732 18.84131979 12.44921875 23.0625 C13.97030132 24.96289535 14.998346 26.78945324 16 29 C15.01 29.33 14.02 29.66 13 30 C9.61537592 26.71492369 6.51774199 23.30256247 3.48046875 19.6953125 C2.16425758 18.18809443 0.74398868 16.77319825 -0.6875 15.375 C-2.94358967 13.05793493 -4.46276837 10.83174247 -6 8 C-5.34 8 -4.68 8 -4 8 C-3.01 9.485 -3.01 9.485 -2 11 C0.05925681 7.91111478 0.2390374 7.29064073 0.125 3.8125 C0.063125 1.9253125 0.063125 1.9253125 0 0 Z " fill="#989898" transform="translate(121,353)"/>
<path d="M0 0 C2.3431213 0.25561323 4.67843403 0.59270772 7 1 C7.33 1.66 7.66 2.32 8 3 C7.34 3 6.68 3 6 3 C6 3.66 6 4.32 6 5 C5.34 5 4.68 5 4 5 C2.7922442 8.62326739 3.45688872 9.64146369 5 13 C3.68 13.99 2.36 14.98 1 16 C-0.31431172 14.20966193 -1.6263953 12.41768797 -2.9375 10.625 C-3.66839844 9.62726563 -4.39929688 8.62953125 -5.15234375 7.6015625 C-7 5 -7 5 -8 3 C-5.69 3 -3.38 3 -1 3 C-0.67 2.01 -0.34 1.02 0 0 Z " fill="#1E1E1E" transform="translate(265,162)"/>
<path d="M0 0 C0.33 1.32 0.66 2.64 1 4 C0.01 4.33 -0.98 4.66 -2 5 C-2 5.66 -2 6.32 -2 7 C-0.02 7 1.96 7 4 7 C3.2575 7.721875 2.515 8.44375 1.75 9.1875 C-1.01267269 11.90711047 -1.01267269 11.90711047 -3.1875 14.8125 C-3.785625 15.534375 -4.38375 16.25625 -5 17 C-5.66 17 -6.32 17 -7 17 C-7.99 19.475 -7.99 19.475 -9 22 C-9.99 22 -10.98 22 -12 22 C-11.42287872 18.13878382 -10.30191119 15.43555775 -8.25 12.125 C-7.71632813 11.26390625 -7.18265625 10.4028125 -6.6328125 9.515625 C-4.52100029 6.26201958 -2.30546381 3.11915692 0 0 Z " fill="#7A7A7A" transform="translate(111,208)"/>
<path d="M0 0 C0.33 0 0.66 0 1 0 C1.66 4.29 2.32 8.58 3 13 C2.34 13 1.68 13 1 13 C1 13.66 1 14.32 1 15 C-5.58728788 20.17572619 -11.94258271 20.38509715 -20 20 C-23.0625 19.5 -23.0625 19.5 -25 19 C-25 18.67 -25 18.34 -25 18 C-18.73 17.67 -12.46 17.34 -6 17 C-6.66 16.34 -7.32 15.68 -8 15 C-6.5459375 14.319375 -6.5459375 14.319375 -5.0625 13.625 C-2.67309525 12.08254388 -2.08476794 11.35546023 -1.4140625 8.54296875 C-1.26501794 6.74672486 -1.16086095 4.94609671 -1.10546875 3.14453125 C-1 1 -1 1 0 0 Z " fill="#DFDFDF" transform="translate(198,386)"/>
<path d="M0 0 C0.99 0.33 1.98 0.66 3 1 C3 1.66 3 2.32 3 3 C2.34 3 1.68 3 1 3 C1 3.66 1 4.32 1 5 C4.11332248 4.33131686 4.11332248 4.33131686 5.1875 1.9375 C5.455625 1.298125 5.72375 0.65875 6 0 C7.32 0.33 8.64 0.66 10 1 C8.42240425 3.42058585 6.83823907 5.83641198 5.25 8.25 C4.8065625 8.93191406 4.363125 9.61382812 3.90625 10.31640625 C1.53460034 13.90875794 -0.78701214 17.08729138 -4 20 C-5.60031344 16.79937313 -4.03173691 14.27728194 -3 11 C-2.34 11 -1.68 11 -1 11 C-0.67 7.37 -0.34 3.74 0 0 Z " fill="#4C4C4C" transform="translate(246,280)"/>
<path d="M0 0 C0.66 0.33 1.32 0.66 2 1 C1.26652344 1.81984375 0.53304687 2.6396875 -0.22265625 3.484375 C-1.16993501 4.57233873 -2.1165135 5.66091246 -3.0625 6.75 C-3.54783203 7.28882813 -4.03316406 7.82765625 -4.53320312 8.3828125 C-6.10830287 10.15872704 -6.10830287 10.15872704 -8 13 C-7.92887706 15.16069374 -7.92887706 15.16069374 -7 17 C-6.96111651 19.33300933 -6.9551365 21.66709801 -7 24 C-7.66 24 -8.32 24 -9 24 C-9.21755666 29.4389165 -9.10428384 33.87080814 -7 39 C-7.99 39.495 -7.99 39.495 -9 40 C-12.96100823 32.30069083 -12.48421093 20.05778317 -10.08984375 11.8984375 C-7.57643785 7.19489335 -3.92610613 3.56088696 0 0 Z " fill="#E7E7E7" transform="translate(226,159)"/>
<path d="M0 0 C0.66 0 1.32 0 2 0 C0.57667134 4.05611794 -1.38591603 7.17537252 -3.9375 10.625 C-4.97197266 12.03652344 -4.97197266 12.03652344 -6.02734375 13.4765625 C-9.20721314 17.54427661 -9.20721314 17.54427661 -11 19 C-11.99 19 -12.98 19 -14 19 C-13.6875 16.625 -13.6875 16.625 -13 14 C-12.01 13.34 -11.02 12.68 -10 12 C-10.33 12 -10.66 12 -11 12 C-11 10.02 -11 8.04 -11 6 C-9.8553125 6.2784375 -9.8553125 6.2784375 -8.6875 6.5625 C-5.91032625 7.22819173 -5.91032625 7.22819173 -3 6 C-2.40929986 4.05396726 -2.40929986 4.05396726 -2 2 C-1.34 1.34 -0.68 0.68 0 0 Z " fill="#646464" transform="translate(327,289)"/>
<path d="M0 0 C0.99 0.33 1.98 0.66 3 1 C2.01 1.495 2.01 1.495 1 2 C1.20625 2.99 1.4125 3.98 1.625 5 C2.25714858 9.34602148 1.20394104 12.84555556 0 17 C-1.09110097 21.63717912 -0.76002931 23.65859438 1 28 C0.34 28.99 -0.32 29.98 -1 31 C-1.39387788 33.32387947 -1.73486085 35.65793749 -2 38 C-2.33 38 -2.66 38 -3 38 C-3.51111714 10.53335141 -3.51111714 10.53335141 0 0 Z " fill="#8E8E8E" transform="translate(171,342)"/>
<path d="M0 0 C1.10844919 3.32534757 0.84454356 5.62182575 0 9 C-0.66 9 -1.32 9 -2 9 C-2 11.31 -2 13.62 -2 16 C-2.66 16 -3.32 16 -4 16 C-4 16.66 -4 17.32 -4 18 C-4.66 18 -5.32 18 -6 18 C-5.835 18.7425 -5.67 19.485 -5.5 20.25 C-5 23 -5 23 -5 27 C-5.598125 27.268125 -6.19625 27.53625 -6.8125 27.8125 C-8.97224808 28.98493467 -10.35790256 30.19369282 -12 32 C-11.37590967 26.25080428 -9.30011087 21.30134549 -7.125 16 C-6.77308594 15.1234375 -6.42117187 14.246875 -6.05859375 13.34375 C-4.21403163 8.79063012 -2.276948 4.35341002 0 0 Z " fill="#656565" transform="translate(189,294)"/>
<path d="M0 0 C0.99 0.495 0.99 0.495 2 1 C2.99 1.33 3.98 1.66 5 2 C6 6.75 6 6.75 6 9 C7.83333333 11.16666667 7.83333333 11.16666667 10 13 C10.66 13 11.32 13 12 13 C11.7525 13.556875 11.505 14.11375 11.25 14.6875 C10.7004776 17.22778915 10.7004776 17.22778915 13 19.5 C13.66 20.325 14.32 21.15 15 22 C14.625 24.15625 14.625 24.15625 14 26 C0 4.5577342 0 4.5577342 0 0 Z " fill="#DDDDDD" transform="translate(218,199)"/>
<path d="M0 0 C3.66508414 1.83254207 4.36130245 6.64141609 5.78125 10.3125 C6.71401867 13.11945899 6.71401867 13.11945899 9 14 C8.3808361 16.584859 7.75492318 19.16776172 7.125 21.75 C6.86396484 22.84441406 6.86396484 22.84441406 6.59765625 23.9609375 C5.72091402 27.53285028 4.87313177 30.79373841 3 34 C3.54881057 27.64780958 4.16511613 21.32126362 5 15 C4.34 14.67 3.68 14.34 3 14 C0.62902273 9.44293818 -0.38624638 5.14995171 0 0 Z " fill="#D8D8D8" transform="translate(195,350)"/>
<path d="M0 0 C1.98 0.495 1.98 0.495 4 1 C4 1.66 4 2.32 4 3 C7.36241096 4.01891241 8.86419382 4.04700983 12.25 2.875 C17.23691721 1.71138598 20.39167324 3.05635198 25 5 C25 5.33 25 5.66 25 6 C21.97818586 6.10867663 18.96033673 6.18762754 15.9375 6.25 C14.66616211 6.30027344 14.66616211 6.30027344 13.36914062 6.3515625 C7.35286661 6.44447793 3.96479755 5.42213997 -1 2 C-0.67 1.34 -0.34 0.68 0 0 Z " fill="#242424" transform="translate(164,398)"/>
<path d="M0 0 C0.99 0.33 1.98 0.66 3 1 C1.68938409 5.23429756 0.05643741 9.07407404 -2 13 C-2.66 13 -3.32 13 -4 13 C-4.45732667 7.28341664 -3.52273754 4.51350747 0 0 Z " fill="#818181" transform="translate(333,275)"/>
<path d="M0 0 C4.59995763 1.31427361 8.26430365 2.97586486 12 6 C12 7.32 12 8.64 12 10 C10 9 10 9 8.6875 7.375 C8.130625 6.92125 7.57375 6.4675 7 6 C4.34533951 6.23043864 4.34533951 6.23043864 2 7 C2 5.35 2 3.7 2 2 C1.01 1.67 0.02 1.34 -1 1 C-0.67 0.67 -0.34 0.34 0 0 Z " fill="#D1D1D1" transform="translate(246,160)"/>
<path d="M0 0 C0 0.99 0 1.98 0 3 C-1.65 3.66 -3.3 4.32 -5 5 C-5.33 4.67 -5.66 4.34 -6 4 C-7.33728828 4.31709452 -8.67009774 4.65323081 -10 5 C-12.75970408 5.06926968 -15.49196042 5.0941736 -18.25 5.0625 C-18.99507813 5.05798828 -19.74015625 5.05347656 -20.5078125 5.04882812 C-22.3385764 5.03709246 -24.16929873 5.0191585 -26 5 C-26 4.67 -26 4.34 -26 4 C-25.01 3.96261719 -24.02 3.92523438 -23 3.88671875 C-15.1836086 3.52162401 -7.32126272 0 0 0 Z " fill="#D6D6D6" transform="translate(291,391)"/>
<path d="M0 0 C5.05663427 3.42066436 7.83507897 7.91002391 11 13 C10.67 13.66 10.34 14.32 10 15 C8.33333333 13.33333333 6.66666667 11.66666667 5 10 C4.071875 9.175 3.14375 8.35 2.1875 7.5 C0 5 0 5 -0.3125 2.1875 C-0.209375 1.465625 -0.10625 0.74375 0 0 Z " fill="#626262" transform="translate(292,178)"/>
<path d="M0 0 C0.66 0.33 1.32 0.66 2 1 C0.95199219 2.19496094 0.95199219 2.19496094 -0.1171875 3.4140625 C-1.03693132 4.48396858 -1.95617581 5.55430405 -2.875 6.625 C-3.33519531 7.14707031 -3.79539063 7.66914063 -4.26953125 8.20703125 C-7.19525588 11.64157756 -8.86040315 14.63809482 -10 19 C-10.89956337 16.53039126 -11.13079353 15.35789275 -10.21484375 12.8515625 C-7.31460053 7.79609266 -4.32184768 3.91981533 0 0 Z " fill="#F7F7F7" transform="translate(226,159)"/>
<path d="M0 0 C6.27 0 12.54 0 19 0 C16.28350526 2.71649474 13.70635644 2.966367 10 3 C6.61980857 2.51289818 3.31711363 1.80758702 0 1 C0 0.67 0 0.34 0 0 Z " fill="#1A1A1A" transform="translate(235,157)"/>
<path d="M0 0 C0.845625 0.556875 1.69125 1.11375 2.5625 1.6875 C2.2325 2.3475 1.9025 3.0075 1.5625 3.6875 C0.5725 4.0175 -0.4175 4.3475 -1.4375 4.6875 C-1.7675 4.0275 -2.0975 3.3675 -2.4375 2.6875 C-3.4275 3.1825 -3.4275 3.1825 -4.4375 3.6875 C-4.4375 2.6975 -4.4375 1.7075 -4.4375 0.6875 C-5.0975 0.6875 -5.7575 0.6875 -6.4375 0.6875 C-6.7675 1.6775 -7.0975 2.6675 -7.4375 3.6875 C-8.4275 3.0275 -9.4175 2.3675 -10.4375 1.6875 C-4.28365385 -1.63557692 -4.28365385 -1.63557692 0 0 Z " fill="#E6E6E6" transform="translate(335.4375,227.3125)"/>
<path d="M0 0 C-1.64178265 4.77609498 -4.26546702 8.79382904 -7 13 C-7.66 12.01 -8.32 11.02 -9 10 C-8.54625 9.62875 -8.0925 9.2575 -7.625 8.875 C-5.54015941 6.46941471 -4.97864965 4.00119225 -4 1 C-2 0 -2 0 0 0 Z " fill="#4E4E4E" transform="translate(264,264)"/>
<path d="M0 0 C1 2 1 2 0.1875 4.8125 C-0.83599774 7.55978342 -1.88377654 10.28917159 -3 13 C-3.99 13 -4.98 13 -6 13 C-5.51675181 7.84535266 -2.81389239 4.18449681 0 0 Z " fill="#D3D3D3" transform="translate(105,217)"/>
<path d="M0 0 C1.32 0.66 2.64 1.32 4 2 C2.06891037 3.03290841 0.129882 4.05098672 -1.8125 5.0625 C-2.89144531 5.63097656 -3.97039062 6.19945312 -5.08203125 6.78515625 C-8 8 -8 8 -11 7 C-9.39125 6.38125 -9.39125 6.38125 -7.75 5.75 C-4.47734926 4.36260851 -2.34482838 2.72000092 0 0 Z " fill="#A1A1A1" transform="translate(277,398)"/>
<path d="M0 0 C1.32 0.66 2.64 1.32 4 2 C1.61426621 3.89213369 -0.07175348 5.02391783 -3 6 C-4.66710346 7.49985609 -4.66710346 7.49985609 -6 9 C-6.33 8.34 -6.66 7.68 -7 7 C-6.34 7 -5.68 7 -5 7 C-4.731875 6.401875 -4.46375 5.80375 -4.1875 5.1875 C-3.01506533 3.02775192 -1.80630718 1.64209744 0 0 Z " fill="#626262" transform="translate(301,322)"/>
<path d="M0 0 C2.99220268 1.36370299 5.29026529 2.94908083 7.75 5.125 C8.67039063 5.93324219 8.67039063 5.93324219 9.609375 6.7578125 C10.06828125 7.16773438 10.5271875 7.57765625 11 8 C10.67 8.66 10.34 9.32 10 10 C7.28775382 8.38731308 4.62647188 6.75098126 2 5 C2 4.01 2 3.02 2 2 C1.01 1.67 0.02 1.34 -1 1 C-0.67 0.67 -0.34 0.34 0 0 Z " fill="#696969" transform="translate(186,181)"/>
<path d="M0 0 C3.88975419 3.59054233 6.89732195 7.73898882 10 12 C9.67 12.66 9.34 13.32 9 14 C8.34 14 7.68 14 7 14 C6.773125 13.319375 6.54625 12.63875 6.3125 11.9375 C4.89602166 8.76728657 3.12708079 6.2928134 1.0234375 3.55078125 C0 2 0 2 0 0 Z " fill="#DBDBDB" transform="translate(127,369)"/>
<path d="M0 0 C0.99 0.33 1.98 0.66 3 1 C2.01 1.495 2.01 1.495 1 2 C1.20625 3.11375 1.4125 4.2275 1.625 5.375 C1.74875 6.57125 1.8725 7.7675 2 9 C1.34 9.66 0.68 10.32 0 11 C-0.66 11 -1.32 11 -2 11 C-1.125 3.375 -1.125 3.375 0 0 Z " fill="#737373" transform="translate(171,342)"/>
<path d="M0 0 C0.66 0 1.32 0 2 0 C3.03590199 5.05002222 3.10251672 9.87416389 3 15 C0.73045369 11.59568053 0.63450051 9.83475798 0.375 5.8125 C0.30023438 4.72582031 0.22546875 3.63914063 0.1484375 2.51953125 C0.09945312 1.68808594 0.05046875 0.85664063 0 0 Z " fill="#7B7B7B" transform="translate(245,250)"/>
<path d="M0 0 C2.375 -0.125 2.375 -0.125 5 0 C5.66 0.66 6.32 1.32 7 2 C9.06874034 2.6425235 9.06874034 2.6425235 11 3 C11 3.66 11 4.32 11 5 C4.6 4.50769231 4.6 4.50769231 1.5625 1.9375 C1.046875 1.298125 0.53125 0.65875 0 0 Z " fill="#D0D0D0" transform="translate(178,398)"/>
<path d="M0 0 C2.0625 2.25 2.0625 2.25 4 5 C3.75 7.3125 3.75 7.3125 3 9 C1 7.8125 1 7.8125 -1 6 C-1.3125 3.375 -1.3125 3.375 -1 1 C-0.67 0.67 -0.34 0.34 0 0 Z " fill="#1D1D1D" transform="translate(122,362)"/>
<path d="M0 0 C0.66 0 1.32 0 2 0 C3.59138085 4.17737474 4.21278058 7.53160785 4 12 C3.01 11.34 2.02 10.68 1 10 C0.875 7.125 0.875 7.125 1 4 C0.56058477 1.73433657 0.56058477 1.73433657 0 0 Z " fill="#8D8D8D" transform="translate(186,328)"/>
<path d="M0 0 C0.66 0.33 1.32 0.66 2 1 C0.515 6.445 0.515 6.445 -1 12 C-3 8 -3 8 -3 4 C-2.34 4 -1.68 4 -1 4 C-0.67 2.68 -0.34 1.36 0 0 Z " fill="#959595" transform="translate(338,264)"/>
<path d="M0 0 C0.66 0 1.32 0 2 0 C1.5547115 5.27315333 0.91626837 10.01770224 -1 15 C-1.99 15 -2.98 15 -4 15 C-3.69320313 14.43539062 -3.38640625 13.87078125 -3.0703125 13.2890625 C-1.98609049 10.97025193 -1.4016568 8.87452987 -0.875 6.375 C-0.70742188 5.59898437 -0.53984375 4.82296875 -0.3671875 4.0234375 C0.05951704 2.01477044 0.05951704 2.01477044 0 0 Z " fill="#4E4E4E" transform="translate(272,233)"/>
<path d="M0 0 C0.66 0 1.32 0 2 0 C1.875 1.75 1.875 1.75 1 4 C-2.0625 6.25 -2.0625 6.25 -5 8 C-5.66 7.67 -6.32 7.34 -7 7 C-6.34 5.68 -5.68 4.36 -5 3 C-3.35 3 -1.7 3 0 3 C0 2.01 0 1.02 0 0 Z " fill="#656565" transform="translate(310,373)"/>
<path d="M0 0 C0.66 0.33 1.32 0.66 2 1 C1.07347299 2.17539996 0.13336613 3.34010577 -0.8125 4.5 C-1.33457031 5.1496875 -1.85664062 5.799375 -2.39453125 6.46875 C-4 8 -4 8 -7 8 C-6.67 7.01 -6.34 6.02 -6 5 C-5.34 5 -4.68 5 -4 5 C-3.67 4.01 -3.34 3.02 -3 2 C-2.01 1.34 -1.02 0.68 0 0 Z " fill="#919191" transform="translate(128,188)"/>
<path d="M0 0 C1.10844919 3.32534757 0.84454356 5.62182575 0 9 C-0.66 9 -1.32 9 -2 9 C-2 10.65 -2 12.3 -2 14 C-2.66 13.01 -3.32 12.02 -4 11 C-3.25 8.125 -3.25 8.125 -2 5 C-1.62875 4.05125 -1.2575 3.1025 -0.875 2.125 C-0.58625 1.42375 -0.2975 0.7225 0 0 Z " fill="#7D7D7D" transform="translate(189,294)"/>
<path d="M0 0 C0.33 0 0.66 0 1 0 C1.59732819 2.76264289 2 5.16032769 2 8 C1.01 8 0.02 8 -1 8 C-1.33 9.32 -1.66 10.64 -2 12 C-3.40907283 9.18185434 -2.50872691 7.82722796 -1.5625 4.875 C-1.27503906 3.96492188 -0.98757813 3.05484375 -0.69140625 2.1171875 C-0.46324219 1.41851562 -0.23507812 0.71984375 0 0 Z " fill="#A1A1A1" transform="translate(315,295)"/>
<path d="M0 0 C2.25 0.0625 2.25 0.0625 5 1 C6.67849824 3.2308475 7.75999263 5.47405906 9 8 C4.58848129 6.65203595 2.61191481 4.77276583 0 1 C0 0.67 0 0.34 0 0 Z " fill="#636363" transform="translate(202,401)"/>
<path d="M0 0 C2 3 2 3 2 5 C1.34 5 0.68 5 0 5 C0 5.66 0 6.32 0 7 C-0.66 7 -1.32 7 -2 7 C-2.33 7.99 -2.66 8.98 -3 10 C-3.33 9.34 -3.66 8.68 -4 8 C-3.22265625 6.0546875 -3.22265625 6.0546875 -2.0625 3.875 C-1.49208984 2.78832031 -1.49208984 2.78832031 -0.91015625 1.6796875 C-0.60980469 1.12539063 -0.30945313 0.57109375 0 0 Z " fill="#5D5D5D" transform="translate(185,305)"/>
<path d="M0 0 C3.26460973 1.80412643 4.88929795 2.83394693 7 6 C6.67 6.99 6.34 7.98 6 9 C3.72494996 6.83328568 1.76424908 4.60436769 0 2 C0 1.34 0 0.68 0 0 Z " fill="#9A9A9A" transform="translate(336,230)"/>
<path d="M0 0 C2.475 0.495 2.475 0.495 5 1 C5 1.66 5 2.32 5 3 C4.34 3 3.68 3 3 3 C2.67 4.65 2.34 6.3 2 8 C-0.1519437 4.77208445 -0.20086443 3.71599191 0 0 Z " fill="#8A8A8A" transform="translate(243,241)"/>
<path d="M0 0 C1.98 0.495 1.98 0.495 4 1 C4 1.66 4 2.32 4 3 C6.475 3.99 6.475 3.99 9 5 C6 6 6 6 4.17578125 5.22265625 C2.45052083 4.1484375 0.72526042 3.07421875 -1 2 C-0.67 1.34 -0.34 0.68 0 0 Z " fill="#989898" transform="translate(164,398)"/>
<path d="M0 0 C2.475 0.99 2.475 0.99 5 2 C5 3.65 5 5.3 5 7 C2.5 5.1875 2.5 5.1875 0 3 C0 2.01 0 1.02 0 0 Z " fill="#181818" transform="translate(154,388)"/>
<path d="M0 0 C0.66 0 1.32 0 2 0 C0.98823563 3.40320742 0.35156418 4.75725331 -2.625 6.8125 C-3.40875 7.204375 -4.1925 7.59625 -5 8 C-5 7.34 -5 6.68 -5 6 C-4.34 6 -3.68 6 -3 6 C-2.87625 5.38125 -2.7525 4.7625 -2.625 4.125 C-2 2 -2 2 0 0 Z " fill="#767676" transform="translate(327,289)"/>
<path d="M0 0 C0.99 0.33 1.98 0.66 3 1 C2.1875 3.4375 2.1875 3.4375 1 6 C0.01 6.33 -0.98 6.66 -2 7 C-1.125 1.125 -1.125 1.125 0 0 Z " fill="#8A8A8A" transform="translate(333,275)"/>
<path d="M0 0 C0.66 0.33 1.32 0.66 2 1 C1.34 3.64 0.68 6.28 0 9 C-0.99 8.01 -1.98 7.02 -3 6 C-2 4 -1 2 0 0 Z " fill="#4C4C4C" transform="translate(97,254)"/>
<path d="M0 0 C4.13333333 6.2 4.13333333 6.2 3.625 9.25 C3.41875 9.8275 3.2125 10.405 3 11 C2.34 10.01 1.68 9.02 1 8 C0.01 8 -0.98 8 -2 8 C-1.67 7.4225 -1.34 6.845 -1 6.25 C0.27075898 3.80116138 0.27075898 3.80116138 0 0 Z " fill="#949494" transform="translate(308,202)"/>
<path d="M0 0 C0.33 0.66 0.66 1.32 1 2 C1.66 2.33 2.32 2.66 3 3 C3 3.99 3 4.98 3 6 C2.01 6.33 1.02 6.66 0 7 C-0.66 6.67 -1.32 6.34 -2 6 C-1.125 1.125 -1.125 1.125 0 0 Z " fill="#171717" transform="translate(114,206)"/>
<path d="M0 0 C1.46726798 3.81489674 0.43336419 6.29011622 -1 10 C-1.99 10 -2.98 10 -4 10 C-2.66666667 6.66666667 -1.33333333 3.33333333 0 0 Z " fill="#727272" transform="translate(240,300)"/>
<path d="M0 0 C0.99 0.33 1.98 0.66 3 1 C2.67 2.32 2.34 3.64 2 5 C0.68 5.33 -0.64 5.66 -2 6 C-2.66 5.01 -3.32 4.02 -4 3 C-2.68 2.34 -1.36 1.68 0 1 C0 0.67 0 0.34 0 0 Z " fill="#434343" transform="translate(148,212)"/>
<path d="M0 0 C1.32 0 2.64 0 4 0 C3.67 1.98 3.34 3.96 3 6 C2.01 6 1.02 6 0 6 C0 4.02 0 2.04 0 0 Z " fill="#727272" transform="translate(316,295)"/>
<path d="M0 0 C0.33 0.66 0.66 1.32 1 2 C-0.98 4.97 -0.98 4.97 -3 8 C-3.99 7.34 -4.98 6.68 -6 6 C-5.34 4.68 -4.68 3.36 -4 2 C-3.34 2.33 -2.68 2.66 -2 3 C-1.34 2.01 -0.68 1.02 0 0 Z " fill="#868686" transform="translate(297,294)"/>
<path d="M0 0 C0.185625 0.9590625 0.185625 0.9590625 0.375 1.9375 C0.684375 2.9584375 0.684375 2.9584375 1 4 C1.66 4.33 2.32 4.66 3 5 C1.68 6.32 0.36 7.64 -1 9 C-2.60031344 5.79937313 -1.03173691 3.27728194 0 0 Z " fill="#858585" transform="translate(243,291)"/>
<path d="M0 0 C0 3.25811062 -0.5522078 5.10441559 -2 8 C-2.99 8.33 -3.98 8.66 -5 9 C-3.7508258 5.54074837 -2.32472205 2.85306797 0 0 Z " fill="#8F8F8F" transform="translate(223,328)"/>
<path d="M0 0 C3.67230705 3.07999946 4.56802365 5.2482602 5 10 C2.75972706 7.11964908 0.83827868 4.15133488 -1 1 C-0.67 0.67 -0.34 0.34 0 0 Z " fill="#ADADAD" transform="translate(264,175)"/>
<path d="M0 0 C0.33 0.66 0.66 1.32 1 2 C1.99 2 2.98 2 4 2 C4 4.31 4 6.62 4 9 C1.18167487 7.59083743 0.97406539 5.92219617 0 3 C0 2.01 0 1.02 0 0 Z " fill="#8F8F8F" transform="translate(98,330)"/>
<path d="M0 0 C3.82946843 1.45255699 5.12050295 3.42895561 7 7 C5.1875 6.875 5.1875 6.875 3 6 C1.25 2.9375 1.25 2.9375 0 0 Z " fill="#D5D5D5" transform="translate(221,207)"/>
</svg>